<svg width="54" height="53" viewBox="0 0 54 53" fill="none" xmlns="http://www.w3.org/2000/svg">
<g clip-path="url(#clip0_2_771)">
<path fill-rule="evenodd" clip-rule="evenodd" d="M15.8604 0.158295C18.6738 0.0287808 19.5708 0 26.7372 0C33.9037 0 34.8007 0.0311793 37.6116 0.158295C40.4225 0.285411 42.3413 0.733913 44.0201 1.38388C45.7782 2.04824 47.3731 3.08675 48.6922 4.42986C50.0354 5.74659 51.0715 7.33913 51.7334 9.09956C52.3858 10.7784 52.8319 12.6972 52.9614 15.5033C53.0909 18.3214 53.1197 19.2184 53.1197 26.3825C53.1197 33.5489 53.0885 34.4459 52.9614 37.2593C52.8343 40.0654 52.3858 41.9841 51.7334 43.663C51.0715 45.4237 50.0336 47.0189 48.6922 48.3375C47.3731 49.6806 45.7782 50.7167 44.0201 51.3787C42.3413 52.0311 40.4225 52.4772 37.6164 52.6067C34.8007 52.7362 33.9037 52.765 26.7372 52.765C19.5708 52.765 18.6738 52.7338 15.8604 52.6067C13.0543 52.4796 11.1356 52.0311 9.45669 51.3787C7.69607 50.7166 6.10089 49.6788 4.7822 48.3375C3.44 47.02 2.40133 45.4256 1.73862 43.6654C1.08865 41.9865 0.642545 40.0678 0.513031 37.2617C0.383517 34.4435 0.354736 33.5465 0.354736 26.3825C0.354736 19.216 0.385916 18.319 0.513031 15.5081C0.640147 12.6972 1.08865 10.7784 1.73862 9.09956C2.40231 7.33932 3.44177 5.74494 4.7846 4.42746C6.10142 3.08555 7.695 2.04691 9.4543 1.38388C11.1332 0.733913 13.0519 0.287809 15.858 0.158295H15.8604ZM37.3981 4.90714C34.616 4.78003 33.7813 4.75364 26.7372 4.75364C19.6931 4.75364 18.8585 4.78003 16.0763 4.90714C13.5028 5.02466 12.1069 5.45398 11.1764 5.81614C9.94597 6.29582 9.06575 6.86424 8.14237 7.78763C7.26706 8.63919 6.59343 9.67585 6.17088 10.8216C5.80872 11.7522 5.3794 13.1481 5.26188 15.7216C5.13476 18.5037 5.10838 19.3384 5.10838 26.3825C5.10838 33.4266 5.13476 34.2613 5.26188 37.0434C5.3794 39.6169 5.80872 41.0128 6.17088 41.9434C6.593 43.0874 7.26695 44.1259 8.14237 44.9773C8.9938 45.8528 10.0323 46.5267 11.1764 46.9488C12.1069 47.311 13.5028 47.7403 16.0763 47.8578C18.8585 47.985 19.6907 48.0113 26.7372 48.0113C33.7837 48.0113 34.616 47.985 37.3981 47.8578C39.9716 47.7403 41.3675 47.311 42.2981 46.9488C43.5285 46.4692 44.4087 45.9007 45.3321 44.9773C46.2075 44.1259 46.8815 43.0874 47.3036 41.9434C47.6657 41.0128 48.0951 39.6169 48.2126 37.0434C48.3397 34.2613 48.3661 33.4266 48.3661 26.3825C48.3661 19.3384 48.3397 18.5037 48.2126 15.7216C48.0951 13.1481 47.6657 11.7522 47.3036 10.8216C46.8239 9.59123 46.2555 8.71102 45.3321 7.78763C44.4805 6.91238 43.4438 6.23876 42.2981 5.81614C41.3675 5.45398 39.9716 5.02466 37.3981 4.90714ZM23.3675 34.5155C25.2494 35.2989 27.3449 35.4046 29.2962 34.8146C31.2474 34.2246 32.9333 32.9755 34.0658 31.2806C35.1984 29.5857 35.7074 27.5502 35.5059 25.5217C35.3044 23.4932 34.4049 21.5976 32.9611 20.1586C32.0407 19.2388 30.9278 18.5344 29.7025 18.0963C28.4772 17.6582 27.17 17.4973 25.875 17.625C24.58 17.7527 23.3295 18.166 22.2134 18.835C21.0973 19.5041 20.1434 20.4122 19.4204 21.4942C18.6974 22.5761 18.2233 23.8049 18.0322 25.0921C17.8412 26.3792 17.9378 27.6927 18.3153 28.938C18.6928 30.1833 19.3417 31.3295 20.2153 32.2939C21.0889 33.2583 22.1654 34.0171 23.3675 34.5155ZM17.1484 16.7937C18.4076 15.5344 19.9025 14.5356 21.5478 13.8541C23.193 13.1726 24.9564 12.8218 26.7372 12.8218C28.518 12.8218 30.2814 13.1726 31.9267 13.8541C33.5719 14.5356 35.0668 15.5344 36.3261 16.7937C37.5853 18.0529 38.5842 19.5478 39.2656 21.193C39.9471 22.8383 40.2979 24.6017 40.2979 26.3825C40.2979 28.1633 39.9471 29.9267 39.2656 31.5719C38.5842 33.2172 37.5853 34.7121 36.3261 35.9713C33.7829 38.5144 30.3337 39.9431 26.7372 39.9431C23.1407 39.9431 19.6915 38.5144 17.1484 35.9713C14.6053 33.4282 13.1766 29.979 13.1766 26.3825C13.1766 22.786 14.6053 19.3368 17.1484 16.7937ZM43.3054 14.8413C43.6175 14.547 43.8673 14.193 44.0401 13.8004C44.2129 13.4077 44.3051 12.9844 44.3114 12.5555C44.3176 12.1266 44.2377 11.7007 44.0765 11.3032C43.9152 10.9057 43.6758 10.5446 43.3725 10.2413C43.0692 9.93797 42.7081 9.69858 42.3105 9.53731C41.913 9.37604 41.4872 9.29617 41.0583 9.30242C40.6294 9.30868 40.206 9.40093 39.8134 9.57372C39.4208 9.7465 39.0668 9.99631 38.7724 10.3084C38.2 10.9152 37.8865 11.7213 37.8987 12.5555C37.9109 13.3897 38.2476 14.1863 38.8376 14.7762C39.4275 15.3661 40.2241 15.7029 41.0583 15.7151C41.8925 15.7272 42.6986 15.4138 43.3054 14.8413Z" fill="#494949"/>
</g>
<defs>
<clipPath id="clip0_2_771">
<rect width="52.765" height="52.765" fill="white" transform="translate(0.354736)"/>
</clipPath>
</defs>
</svg>
