<svg width="53" height="53" viewBox="0 0 53 53" fill="none" xmlns="http://www.w3.org/2000/svg">
<g clip-path="url(#clip0_2_773)">
<path d="M26.5021 52.765C41.0728 52.765 52.8846 40.9531 52.8846 26.3825C52.8846 11.8118 41.0728 0 26.5021 0C11.9315 0 0.119629 11.8118 0.119629 26.3825C0.119629 40.9531 11.9315 52.765 26.5021 52.765Z" fill="url(#paint0_linear_2_773)"/>
<path fill-rule="evenodd" clip-rule="evenodd" d="M12.0619 26.104C19.7529 22.7531 24.8815 20.544 27.4475 19.4767C34.7742 16.4293 36.2967 15.8999 37.289 15.8824C37.5072 15.8786 37.9952 15.9327 38.3113 16.1892C38.5782 16.4057 38.6516 16.6983 38.6868 16.9036C38.7219 17.109 38.7657 17.5767 38.7309 17.9422C38.3338 22.1139 36.6159 32.2375 35.7419 36.9099C35.372 38.8869 34.6438 39.5498 33.9389 39.6147C32.4068 39.7557 31.2434 38.6022 29.7595 37.6295C27.4375 36.1074 26.1257 35.1599 23.8718 33.6746C21.267 31.9581 22.9556 31.0147 24.4401 29.4728C24.8285 29.0693 31.5789 22.9293 31.7096 22.3724C31.7259 22.3027 31.7411 22.043 31.5868 21.9059C31.4326 21.7688 31.2049 21.8157 31.0406 21.853C30.8077 21.9058 27.0983 24.3576 19.9123 29.2084C18.8594 29.9314 17.9057 30.2836 17.0512 30.2652C16.1092 30.2448 14.2972 29.7326 12.9502 29.2947C11.298 28.7576 9.98483 28.4737 10.0992 27.5616C10.1587 27.0865 10.813 26.6006 12.0619 26.104Z" fill="white"/>
</g>
<defs>
<linearGradient id="paint0_linear_2_773" x1="26.5021" y1="0" x2="26.5021" y2="52.3736" gradientUnits="userSpaceOnUse">
<stop stop-color="#2CA4E0"/>
<stop offset="1" stop-color="#0D83BF"/>
</linearGradient>
<clipPath id="clip0_2_773">
<rect width="52.765" height="52.765" fill="white" transform="translate(0.119629)"/>
</clipPath>
</defs>
</svg>
