<svg width="51" height="50" viewBox="0 0 51 50" fill="none" xmlns="http://www.w3.org/2000/svg">
<path d="M50.0601 25C50.0601 38.8071 38.8672 50 25.0601 50C11.2529 50 0.0600586 38.8071 0.0600586 25C0.0600586 11.1929 11.2529 0 25.0601 0C38.8672 0 50.0601 11.1929 50.0601 25Z" fill="url(#paint0_linear_2_26)"/>
<path d="M21.0601 32.5V49.5C21.0601 49.7761 21.2839 50 21.5601 50H28.5601C28.8362 50 29.0601 49.7761 29.0601 49.5V32.5C29.0601 32.2239 29.2839 32 29.5601 32H34.5601C34.8362 32 35.0601 31.7761 35.0601 31.5V25.5C35.0601 25.2239 34.8362 25 34.5601 25H29.5601C29.2839 25 29.0601 24.7765 29.0601 24.5003V20C29.0601 18 31.5601 17 32.5601 17H35.5601C35.8362 17 36.0601 16.7761 36.0601 16.5V10.5C36.0601 10.2239 35.8363 10 35.5601 10H29.0601C24.2601 10 21.0601 15 21.0601 18V24.5C21.0601 24.7761 20.8362 25 20.5601 25H15.5601C15.2839 25 15.0601 25.2239 15.0601 25.5V31.5C15.0601 31.7761 15.2839 32 15.5601 32H20.5601C20.8362 32 21.0601 32.2239 21.0601 32.5Z" fill="white"/>
<defs>
<linearGradient id="paint0_linear_2_26" x1="25.0601" y1="0" x2="25.0601" y2="50" gradientUnits="userSpaceOnUse">
<stop stop-color="#18ACFE"/>
<stop offset="1" stop-color="#0165E1"/>
</linearGradient>
</defs>
</svg>
