<svg width="119" height="120" viewBox="0 0 119 120" fill="none" xmlns="http://www.w3.org/2000/svg">
<path d="M59.057 0.942994C47.3767 0.942994 35.9586 4.40663 26.2467 10.8959C16.5348 17.3852 8.96536 26.6086 4.49547 37.3999C0.0255885 48.1911 -1.14394 60.0655 1.13479 71.5214C3.41352 82.9774 9.03815 93.5003 17.2974 101.76C25.5567 110.019 36.0796 115.644 47.5356 117.922C58.9915 120.201 70.8659 119.031 81.6572 114.562C92.4484 110.092 101.672 102.522 108.161 92.8103C114.65 83.0984 118.114 71.6804 118.114 60C118.115 52.2441 116.589 44.564 113.621 37.3983C110.654 30.2326 106.304 23.7217 100.82 18.2375C95.3353 12.7532 88.8244 8.40319 81.6587 5.43577C74.493 2.46834 66.8129 0.94168 59.057 0.942994ZM101.757 39.043H85.757C84.4252 31.1959 81.9205 23.5939 78.327 16.492C88.5345 21.0362 96.8247 29.0168 101.754 39.044L101.757 39.043ZM59.057 12.373C63.486 12.373 70.63 22.184 74.107 39.044H44.007C47.484 22.184 54.628 12.373 59.057 12.373ZM11.43 60C11.431 56.8012 11.7502 53.6105 12.383 50.475H30.883C30.645 53.594 30.483 56.738 30.483 60C30.483 63.262 30.65 66.406 30.883 69.525H12.383C11.7502 66.3895 11.431 63.1987 11.43 60ZM16.36 80.955H32.36C33.6918 88.8021 36.1965 96.4041 39.79 103.506C29.5816 98.9626 21.2903 90.9823 16.36 80.955ZM32.36 39.044H16.36C21.2908 29.0163 29.5828 21.036 39.792 16.493C36.1985 23.5949 33.6938 31.1969 32.362 39.044H32.36ZM59.057 107.626C54.628 107.626 47.484 97.815 44.007 80.955H74.13C70.63 97.815 63.486 107.626 59.057 107.626ZM75.75 69.526H42.364C42.102 66.478 41.911 63.335 41.911 60.001C41.911 56.667 42.101 53.524 42.364 50.476H75.774C76.036 53.524 76.226 56.667 76.226 60.001C76.226 63.335 76.012 66.477 75.75 69.525V69.526ZM78.322 103.507C81.905 96.4008 84.4092 88.8003 85.752 80.956H101.752C96.8216 90.9829 88.5303 98.9629 78.322 103.506V103.507ZM87.228 69.526C87.466 66.407 87.628 63.263 87.628 60.001C87.628 56.739 87.461 53.595 87.228 50.476H105.728C106.998 56.7628 106.998 63.2402 105.728 69.527L87.228 69.526Z" fill="#E6E6E6"/>
</svg>
