<svg width="54" height="53" viewBox="0 0 54 53" fill="none" xmlns="http://www.w3.org/2000/svg">
<g clip-path="url(#clip0_2_50)">
<path d="M21.9309 34.0746V18.6903L35.6498 26.3825L21.9309 34.0746Z" fill="white"/>
<path d="M52.4767 14.0441C52.1765 12.9604 51.5885 11.9724 50.7717 11.1789C49.9549 10.3853 48.9378 9.81413 47.8224 9.52245C43.7145 8.44238 27.2074 8.44238 27.2074 8.44238C27.2074 8.44238 10.7004 8.44238 6.59252 9.52245C5.47705 9.81413 4.46001 10.3853 3.64318 11.1789C2.82635 11.9724 2.23839 12.9604 1.93814 14.0441C1.1711 18.114 0.798882 22.2449 0.826369 26.3825C0.798882 30.52 1.1711 34.6509 1.93814 38.7209C2.23839 39.8045 2.82635 40.7926 3.64318 41.5861C4.46001 42.3796 5.47705 42.9508 6.59252 43.2425C10.7004 44.3226 27.2074 44.3226 27.2074 44.3226C27.2074 44.3226 43.7145 44.3226 47.8224 43.2425C48.9378 42.9508 49.9549 42.3796 50.7717 41.5861C51.5885 40.7926 52.1765 39.8045 52.4767 38.7209C53.2438 34.6509 53.616 30.52 53.5885 26.3825C53.616 22.2449 53.2438 18.114 52.4767 14.0441ZM21.9312 34.0711V18.6939L35.6305 26.3825L21.9312 34.0711Z" fill="#FC0100"/>
</g>
<defs>
<clipPath id="clip0_2_50">
<rect width="52.765" height="52.765" fill="white" transform="translate(0.824951)"/>
</clipPath>
</defs>
</svg>
